<svg id="Layer_1" data-name="Layer 1" xmlns="http://www.w3.org/2000/svg" viewBox="0 0 79.33 33.5"><defs><style>.cls-1,.cls-2{fill:#ff6452;}.cls-2{font-size:15.58px;font-family:Swiss721BT-Black, Swis721 Blk BT;}.cls-2,.cls-3{font-weight:800;}.cls-3{font-size:7.67px;font-family:Humanist777BT-BlackCondensedB, Humnst777 BlkCn BT;letter-spacing:0.02em;}.cls-4{letter-spacing:0.04em;}</style></defs><path class="cls-1" d="M24.27,14.25c-5.13-.54-4.42-3.76-2.48-4.3a9.75,9.75,0,0,1,4.73,0A15.06,15.06,0,0,1,28.34,13c7.08-2.15,8.14-9.68,13.1-11.11C60.91.45,85-.62,88.16,5.11,80.73,1.17,41.79,2.6,40.73,3.68c-2.48,1.79-3.54,4.66-7.08,8.24H37.9v1.44H31.53L28,14.79l-2.48-3.58C21.78,10.56,22.24,12,24.27,14.25Z" transform="translate(-20.34 -0.75)"/><path class="cls-1" d="M25,16.76V34.25H47.36a120.72,120.72,0,0,0-19.73-1.9v-10c4.48,3.76,12.23,4,20.53,3.58-9.55-1.43-17-1.79-20.53-6.09V16.22Z" transform="translate(-20.34 -0.75)"/><text class="cls-2" transform="translate(16.28 19.36) scale(0.99 1)">MANGA</text><text class="cls-3" transform="translate(28.8 27.98) scale(0.99 1)">A<tspan class="cls-4" x="4.83" y="0">UTOMOBILES</tspan></text></svg>