<svg id="Layer_1" data-name="Layer 1" xmlns="http://www.w3.org/2000/svg" viewBox="0 0 82 34.2"><defs><style>.cls-1,.cls-2,.cls-3{fill:#fff;}.cls-2{font-size:15.9px;font-family:Swiss721BT-Black, Swis721 Blk BT;}.cls-2,.cls-3{font-weight:800;}.cls-3{font-size:7.83px;font-family:Humanist777BT-BlackCondensedB, Humnst777 BlkCn BT;letter-spacing:0.02em;}.cls-4{letter-spacing:0.04em;}</style></defs><path class="cls-1" d="M23.07,14.18c-5.31-.54-4.57-3.84-2.56-4.39a10.15,10.15,0,0,1,4.89,0,16.48,16.48,0,0,1,1.88,3.11C34.59,10.71,35.69,3,40.81,1.56,60.94.1,85.82-1,89.11,4.85c-7.68-4-47.93-2.56-49-1.46-2.56,1.83-3.66,4.76-7.32,8.42h4.39v1.46H30.57l-3.66,1.46-2.56-3.66C20.5,10.41,21,11.9,23.07,14.18Z" transform="translate(-19 -0.4)"/><path class="cls-1" d="M23.8,16.75V34.6H46.93a126.24,126.24,0,0,0-20.39-1.94V22.42c4.63,3.84,12.64,4,21.23,3.66-9.88-1.47-17.57-1.83-21.23-6.22V16.2Z" transform="translate(-19 -0.4)"/><text class="cls-2" transform="translate(16.83 19.77)">MANGA</text><text class="cls-3" transform="translate(29.77 28.56)">A<tspan class="cls-4" x="4.93" y="0">UTOMOBILES</tspan></text></svg>